<svg xmlns="http://www.w3.org/2000/svg" width="24" height="24" viewBox="0 0 24 24"><defs><style>.cls-1{fill:#669df6}.cls-2{fill:#4285f4}.cls-3{fill:#aecbfa}</style></defs><g data-name="Product Icons"><path d="M12 12.29 3.75 7.35 12 2.58l8.24 4.67ZM5.27 7.36l6.72 4 6.72-4.11L12 3.47Z" class="cls-1"/><path d="m12 21.44-8.28-5.55L12 11.3l8.15 4.64Zm-6.8-5.5L12 20.5l6.7-4.5-6.7-3.82Z" class="cls-1"/><path d="m4.123 7.502.675-.37 7.477 13.6-.675.37z" class="cls-2"/><path d="m11.704 20.826 7.3-13.559.679.365-7.301 13.56zm-7.478-5.139 7.38-12.783.667.385-7.38 12.783z" class="cls-2"/><path d="m11.704 3.214.669-.381 7.405 12.987-.67.382z" class="cls-2"/><path d="M11.64 2.96h.77V20.9h-.77zM4.06 7.43h.77v8.66h-.77zm14.97-.09h.77V16h-.77z" class="cls-2"/><circle cx="12.03" cy="3.07" r="1.07" class="cls-3"/><circle cx="19.42" cy="7.34" r="1.07" class="cls-3"/><circle cx="4.58" cy="7.34" r="1.07" class="cls-3"/><circle cx="12.03" cy="11.93" r="1.68" class="cls-3"/><circle cx="19.42" cy="15.94" r="1.07" class="cls-3"/><circle cx="4.58" cy="15.94" r="1.07" class="cls-3"/><circle cx="12.03" cy="20.93" r="1.07" class="cls-3"/><path d="M12 12.29 3.75 7.35 12 2.58l8.24 4.67ZM5.27 7.36l6.72 4 6.72-4.11L12 3.47Z" class="cls-3"/><path d="m12 21.44-8.28-5.55L12 11.3l8.15 4.64Zm-6.8-5.5L12 20.5l6.7-4.5-6.7-3.82Z" class="cls-3"/><path d="m4.123 7.502.675-.37 7.477 13.6-.675.37z" class="cls-3"/><path d="m11.704 20.826 7.3-13.559.679.365-7.301 13.56zm-7.478-5.139 7.38-12.783.667.385-7.38 12.783z" class="cls-3"/><path d="m11.704 3.214.669-.381 7.405 12.987-.67.382z" class="cls-3"/><path d="M11.64 2.96h.77V20.9h-.77zM4.06 7.43h.77v8.66h-.77zm14.97-.09h.77V16h-.77z" class="cls-3"/><circle cx="12.03" cy="3.07" r="1.07" class="cls-1"/><circle cx="19.42" cy="7.34" r="1.07" class="cls-1"/><circle cx="4.58" cy="7.34" r="1.07" class="cls-1"/><circle cx="12.03" cy="11.93" r="1.68" class="cls-1"/><circle cx="19.42" cy="15.94" r="1.07" class="cls-1"/><circle cx="4.58" cy="15.94" r="1.07" class="cls-1"/><circle cx="12.03" cy="20.93" r="1.07" class="cls-1"/></g></svg>