<svg xmlns="http://www.w3.org/2000/svg" width="24" height="24" viewBox="0 0 24 24"><defs><clipPath id="a"><path d="M0 0h24v24H0z" style="fill:none"/></clipPath></defs><g data-name="Artwork 3" style="clip-path:url(#a)"><g style="clip-path:url(#a)"><path d="M13.53 2.27v2.36" style="fill:none;stroke:#579bfb;stroke-miterlimit:10;stroke-width:2px"/></g><path d="m7.72 4.68 1.67 1.66m-4.07 4.15h2.35m5.86 8.22v-2.35m5.82-.06-1.67-1.66" style="fill:none;stroke:#579bfb;stroke-miterlimit:10;stroke-width:2px"/><g style="clip-path:url(#a)"><path d="M21.75 10.49H19.4" style="fill:none;stroke:#579bfb;stroke-miterlimit:10;stroke-width:2px"/></g><path d="m19.35 4.68-1.67 1.66M6.99 17.2l1.54 1.54" style="fill:none;stroke:#579bfb;stroke-miterlimit:10;stroke-width:2px"/><g style="clip-path:url(#a)"><path d="m9.6 13.81-5.38 5.38 1.93 1.93" style="fill:none;stroke:#abc9f8;stroke-miterlimit:10;stroke-width:2px"/><path d="M17.64 14.6a5.81 5.81 0 1 1 0-8.21 5.8 5.8 0 0 1 0 8.21Z" style="fill:none;stroke:#579bfb;stroke-miterlimit:10;stroke-width:2px"/><path d="m10.68 10.68 1.77 1.84 3.94-4.06" style="fill:none;stroke:#4283f2;stroke-miterlimit:10"/></g></g></svg>