<svg xmlns="http://www.w3.org/2000/svg" width="24" height="24" viewBox="0 0 24 24"><defs><style>.cls-1{fill:#669df6}.cls-2{fill:#4285f4}</style></defs><g data-name="Product Icons"><path d="M20 21a1 1 0 0 1-.7-.29l-2-2a1 1 0 0 1 1.41-1.41l2 2a1 1 0 0 1 0 1.41A1 1 0 0 1 20 21ZM4 21a1 1 0 0 1-.7-1.71l2-2a1 1 0 0 1 1.42 0 1 1 0 0 1 0 1.41l-2 2A1 1 0 0 1 4 21Z" class="cls-1"/><path d="m5.47 17.13-1.22 1.22a11.13 11.13 0 0 0 1.42 1.41l1.22-1.22Zm14.26 1.18-1-1a1.19 1.19 0 0 0-.23-.16l-1.34 1.34a1.19 1.19 0 0 0 .16.23l1 1a11.13 11.13 0 0 0 1.41-1.41Z" class="cls-2"/><g data-name="colored-32/scheduler"><path d="M0 0h24v24H0z" style="fill:none"/><path d="M12 21a9 9 0 1 1 9-9 9 9 0 0 1-9 9Zm0-2a7 7 0 1 0-7-7 7 7 0 0 0 7 7Z" class="cls-1"/><path id="Oval" d="M12 17a5 5 0 0 0 5-5 5 5 0 0 0-5-5v5l-4.08 2.91A5 5 0 0 0 12 17Z" class="cls-2"/></g><path d="M4 6.07a1 1 0 0 1-.71-1.71l2-2a1 1 0 0 1 1.42 0 1 1 0 0 1 0 1.41l-2 2a1 1 0 0 1-.71.3Zm16 0a1 1 0 0 1-.71-.3l-2-2a1 1 0 0 1 0-1.41 1 1 0 0 1 1.42 0l2 2A1 1 0 0 1 20 6.07Z" style="fill:#aecbfa"/></g></svg>