<svg xmlns="http://www.w3.org/2000/svg" width="24" height="24" viewBox="0 0 24 24"><defs><style>.cls-1{fill:#669df6}.cls-2{fill:#4285f4}.cls-3{fill:#aecbfa}</style></defs><g data-name="Product Icons"><path d="M20 5h-3v2h3v12h-3v2h5V5h-2z" class="cls-1"/><path d="m20 8 2-1h-2v1zm2 10-2 1h2v-1z" class="cls-2"/><path d="M4 21h3v-2H4V7h3V5H2v16h2z" class="cls-1"/><path d="m2 18 2 1H2v-1zM4 8 2 7h2v1z" class="cls-2" data-name="Shape"/><path id="Rectangle-7-Copy" d="M7 12h10v2H7z" class="cls-3"/><path id="Rectangle-7-Copy-2" d="M7 15h10v2H7z" class="cls-3" data-name="Rectangle-7-Copy"/><path id="Rectangle-7-Copy-3" d="M7 9h10v2H7z" class="cls-3" data-name="Rectangle-7-Copy"/></g></svg>