<svg xmlns="http://www.w3.org/2000/svg" width="24" height="24" viewBox="0 0 24 24"><g data-name="Product Icons"><path d="M10.48 11a.91.91 0 1 1-.91.91.91.91 0 0 1 .91-.91Zm0-.8a1.71 1.71 0 1 0 1.7 1.71 1.7 1.7 0 0 0-1.7-1.71Zm-5.91.8a.91.91 0 1 1-.91.91.91.91 0 0 1 .91-.91Zm0-.8a1.71 1.71 0 1 0 1.7 1.71 1.7 1.7 0 0 0-1.7-1.71Zm3.04 6.11a.91.91 0 0 1 0 1.82.91.91 0 1 1 0-1.82Zm0-.79a1.71 1.71 0 1 0 1.2.5 1.7 1.7 0 0 0-1.2-.5Zm0-9.73a.91.91 0 1 1-.94.91.92.92 0 0 1 .94-.91Zm0-.8a1.71 1.71 0 1 0 1.2.5A1.7 1.7 0 0 0 7.61 5Z" style="fill:#669df6;fill-rule:evenodd"/><path d="M10.66 2h1.68v20h-1.68z" style="fill:#4285f4"/><path d="M16.25 4.87h-4.51a.37.37 0 0 0-.3.4v2.82a.36.36 0 0 0 .3.39h4.51a.36.36 0 0 0 .31-.39V5.28a.37.37 0 0 0-.31-.41Zm4.32 5.29h-8.32c-.31 0-.56.18-.56.39v2.82c0 .22.25.4.56.4h8.32c.31 0 .56-.19.56-.4v-2.82c0-.22-.25-.39-.56-.39Zm-5.91 5.28h-3.53c-.13 0-.23.18-.23.39v2.82c0 .22.1.39.23.39h3.53c.13 0 .24-.18.24-.39v-2.82c-.01-.22-.11-.39-.24-.39Z" style="fill:#4285f4;fill-rule:evenodd"/></g></svg>