<svg xmlns="http://www.w3.org/2000/svg" width="24" height="24" viewBox="0 0 24 24"><defs><style>.cls-1{fill:#aecbfa}</style></defs><g data-name="Product Icons"><path d="M7.01 2h2v3h-2zm4 0h2v3h-2zm4 0h2v3h-2z" class="cls-1"/><path d="M7.01 19h2v3h-2zm4 0h2v3h-2zm4 0h2v3h-2zM19 15h3v2h-3zm0-4h3v2h-3zm0-4h3v2h-3z" style="fill:#4285f4"/><path d="M2 15h3v2H2zm0-4h3v2H2zm0-4h3v2H2z" class="cls-1"/><path d="M11 13H9V7H7v8h4v3h2v-3h4V7h-2v6h-2V6h-2Zm-7 7V4h16v16Z" data-name="colored-32/quantum-engine" style="fill:#669df6"/></g></svg>