<svg xmlns="http://www.w3.org/2000/svg" width="24" height="24" viewBox="0 0 24 24"><g data-name="Product Icons"><path d="M2 3.94h3.33v2.58H2zm0 4.51h3.33v2.58H2zm0 4.52h3.33v2.58H2zm0 4.51h3.33v2.58H2zM18.67 3.94H22v2.58h-3.33zm0 4.51H22v2.58h-3.33zm0 4.52H22v2.58h-3.33zm0 4.51H22v2.58h-3.33z" style="fill:#669df6"/><path d="M21.33 6.52h-2.66V3.94l2.66 2.58zm0 4.51h-2.66V8.45l2.66 2.58zm0 4.52h-2.66v-2.58l2.66 2.58zm0 4.52h-2.66v-2.59l2.66 2.59z" style="fill:#4285f4;fill-rule:evenodd"/><path d="M5.33 22h13.34V2H5.33Zm6-9H8l4.67-7.74V11H16l-4.67 7.74Z" style="fill:#aecbfa;fill-rule:evenodd"/><path d="M11.33 22v-3.23L16 11.03h-3.33V2h6v20h-7.34z" style="fill-rule:evenodd;fill:#669df6"/></g></svg>