<svg xmlns="http://www.w3.org/2000/svg" viewBox="0 0 162.99 185.49"><g data-name="Layer 2"><g data-name="Layer 1"><path d="M.17 45.85Q39.71 23.07 79.22.44C80.52-.3 83 0 84.45.74c8.6 4.69 17 9.78 25.59 14.43a10.18 10.18 0 0 0 6.41.73c5.69-1.15 11.24-2.93 16.9-4.22 8-1.83 14.81 3.24 13.88 11.49-1.15 10.27 1.75 17.21 11.9 20.52a18.65 18.65 0 0 1 3.87 2.39c0 30.2.05 60.36-.11 90.51a6.34 6.34 0 0 1-2.73 4.55Q122.3 163.25 84.22 185a6.77 6.77 0 0 1-5.6-.15c-9.88-5.45-19.54-11.3-29.4-16.79a12.74 12.74 0 0 0-6.56-1.46c-15.43.88-24.29-4.63-30.65-19a8.05 8.05 0 0 0-4.44-3.6c-6.36-2.27-7.66-6.57-7.57-13 .4-28.34.17-56.67.17-85.15Zm9.32 44.72c-.06 13.63-.24 27.26-.05 40.89 0 1.91 1.9 3.79 3.31 6.43 11.07-14.51 24.67-16.16 40.19-12V91.62q0-16.5.08-33 .07-10 .17-20c1.67-5.32 5.54-7.95 10.77-9.24 12-3 24-6.11 37.36-9.53C94.56 15.89 89 12.5 83.2 9.38c-.85-.46-2.58.08-3.61.67q-33.73 19.38-67.35 39a6.36 6.36 0 0 0-2.79 4.55c-.18 12.32-.02 24.65.04 36.97Zm57.87-17v39c-.06 3.16-.15 6.32-.16 9.49 0 7-.08 14 0 21 .11 8.07-3.78 14.1-10.35 19 8.11 4.71 15.37 9.09 22.84 13.09 1.32.71 3.82.4 5.23-.4 22-12.51 43.82-25.25 65.8-37.74 3.14-1.79 4.42-3.67 4.39-7.36-.17-24.65-.25-49.31 0-74 .06-5.54-2.7-7.11-7.84-8.33v5.78c0 23.16.13 46.32-.14 69.47a23.25 23.25 0 0 1-3 11.28c-8.39 13.83-32.58 16-45.07 4.35-9.41-8.78-9-21 1.09-28.83 6.6-5.1 14.3-6.82 22.52-6.14 3.37.28 6.72.89 10.56 1.42 0-18.36 0-36.15-.09-53.95 0-.46-1.32-.92-2-1.38L104.3 55.8l-13.07 3.69c-5.4 1.3-10.8 2.61-16.21 3.88-8.08 1.91-8.08 1.9-7.66 10.18Z" style="fill:#0d1d65"/><path d="m91.23 59.49 13.11-3.67c6.68.19 13.43 1 20 .24 2.52-.31 4.58-4.37 6.85-6.72.71.46 2 .92 2 1.38.11 17.8.09 35.59.09 54-3.84-.53-7.19-1.14-10.56-1.42-8.22-.68-15.92 1-22.52 6.14-10.13 7.82-10.5 20-1.09 28.83 12.49 11.64 36.68 9.48 45.07-4.35a23.25 23.25 0 0 0 3-11.28c.27-23.15.14-46.31.14-69.47v-5.83c5.14 1.22 7.9 2.79 7.84 8.33-.29 24.66-.21 49.32 0 74 0 3.69-1.25 5.57-4.39 7.36-22 12.49-43.83 25.23-65.8 37.74-1.41.8-3.91 1.11-5.23.4-7.47-4-14.73-8.38-22.84-13.09 6.57-4.86 10.46-10.89 10.35-19-.09-7 0-14 0-21 0-3.17.1-6.33.16-9.49 6.27 3.62 13.27 2.91 18.1-4.09 6.86-9.94 16.79-15.35 29.08-15.91a10.69 10.69 0 0 0 9.15-15.79c-3-5.4-7.5-5.92-13.48-5.48-18.34 1.37-31.8 10.55-42.9 24.27v-22c3-2 6-4.2 9.11-6 4.85-2.87 9.83-5.43 14.76-8.1Z" style="fill:#2269e6"/><path d="M53.19 38.61q-.09 10-.17 20c-.33.06-.74 0-1 .18A78.22 78.22 0 0 0 28.57 90.4c-1.83 4.36 1 9.57 5.55 12.14 3.78 2.12 9.46 1.57 12.28-1.68a112.15 112.15 0 0 0 6.54-9.24v34.3c-15.52-4.19-29.12-2.54-40.19 12-1.41-2.64-3.28-4.52-3.31-6.43-.19-13.63 0-27.26.05-40.89 1.84-2.16 4.27-4 5.44-6.53a111.48 111.48 0 0 1 38.26-45.46Z" style="fill:#226be7"/><path d="M53.19 38.61A111.48 111.48 0 0 0 14.93 84c-1.17 2.48-3.6 4.37-5.44 6.53-.06-12.32-.22-24.65 0-37a6.36 6.36 0 0 1 2.79-4.54q33.57-19.68 67.35-39c1-.59 2.76-1.13 3.61-.67 5.76 3.18 11.32 6.57 18.08 10.52C88 23.26 76 26.41 64 29.37c-5.27 1.29-9.14 3.92-10.81 9.24Z" style="fill:#1f8bf2"/><path d="M67.36 95.59c11.1-13.72 24.56-22.9 42.87-24.25 6-.44 10.52.08 13.48 5.48a10.69 10.69 0 0 1-9.15 15.79c-12.29.56-22.22 6-29.08 15.91-4.83 7-11.83 7.71-18.1 4.09l-.02-17.02Zm-14.42-3.97a112.15 112.15 0 0 1-6.54 9.24c-2.82 3.25-8.5 3.8-12.28 1.68-4.58-2.57-7.38-7.78-5.55-12.14a78.22 78.22 0 0 1 23.48-31.59c.23-.18.64-.12 1-.18q-.05 16.5-.11 32.99Z" style="fill:#1f8cf4"/><path d="M131.18 49.34c-2.27 2.35-4.33 6.41-6.85 6.72-6.56.8-13.31-.05-20-.24Z" style="fill:#1e88ef"/><path d="M91.23 59.49c-4.93 2.67-9.91 5.23-14.76 8-3.14 1.83-6.08 4-9.11 6-.42-8.28-.42-8.27 7.66-10.18 5.41-1.21 10.81-2.52 16.21-3.82Z" style="fill:#1e88f0"/></g></g></svg>