<svg xmlns="http://www.w3.org/2000/svg" fill="none" viewBox="14.38 6.68 136.62 152.75"><circle cx="111" cy="111.405" r="37" fill="#BF1931" stroke="#f6bbc4" stroke-width="3"/><circle cx="57.5" cy="116.905" r="39.5" fill="#BF1931" stroke="#f6bbc4" stroke-width="3"/><path fill="#646F29" stroke="#798249" d="M47 83c-.943.471-2.25 0-3-1.5s-4.406-11.412-6.5-17.094c-3.5-9.5-10.643-24.5-11.5-26.5-3-7-7.5-12-7.5-12-.667-1.167-1.6-3.2 0-4 1.6-.8 3.167 1.166 4 2.5 0 0 13.74 25.91 18 37.094 3.048 8 6.75 18 7 19s.5 2-.5 2.5Zm50 .5c-1.36 1.404-2.5 0-2.92-.447 0 0-6.212-7.03-10.58-11.147C77.934 66.659 70.5 60 65.5 56c-11.188-8.95-23.285-14.169-23.285-14.169-1.13-.727-3.126-2.544-2.076-3.992 1.051-1.448 9.694 2.207 11.049 3.005 0 0 13.053 9.728 22.502 17.074C83.11 65.24 96.033 79.22 96.033 79.22 97 80.5 98.36 82.096 97 83.5Z"/><path fill="#49A501" stroke="#B3C7A1" d="M16.91 22.644C28.465.746 98.544 5.734 106.797 36.833 91.84 57.826 21.735 49.797 16.91 22.644Z"/><path fill="#99C075" d="M62 46.906c-5.312-5.312-8.5-14.5-9-17.5-3-1-7.5-1.5-15-3-1 1.5 6 14 9.5 17 1.5 1.5.5 1.5-1.5 0s-10-13-10.5-17.5c-2-.5-6.5-1-9-1.5s-7-.5-7-1.5c0-2.404 11 0 16.5 1 4.339-5.889 10.87-10.317 15.5-12 2.84-1.033 4.953-.42 2.5.5-8 3-14 9-15.5 12 5 1 13.5 2.5 15 3 3-6.5 13-12 17-13.5 3.5-1.313 3.75-.25 2.5.5-2.5 1.5-15 7-17.5 13.5 4 1 11 2.5 12 2.5 1-3.5 12.605-10.688 14.5-11.5 3.5-1.5 3.831-.166 2.5.5-3.5 1.75-14.5 9-15 11.5.5.5 10.5 2.5 12.5 2.5 1-2.5 9.338-7.194 12.5-8 2.5-.638 4-.167.5 1-2.85.95-11 5.5-11 7 1.5.5 10 1.5 14 2.5 1 .5.615 1.105-.5 1-1.868-.177-11.154-1.77-13.184-1.978L84 34.906c.5 1.5 4.027 5.859 6.5 8.5.66.705 2.25 2.5.5 1.5-3.5-2-7.5-7.5-9-10-5-.5-7.5-1-13.5-2 0 2.5 2.5 7 4.5 9.5 1.098 1.372 4.5 5 3.5 5-1.5 0-8.5-8.5-10-15-1.5-.5-7-1.5-11.5-2.5.5 4 2 8.277 7 15.5 1.385 2 1.166 2.666 0 1.5Z"/><ellipse cx="46.45" cy="101.043" fill="#fff" fill-opacity=".17" rx="12" ry="3.5" transform="rotate(-31.022 46.45 101.043)"/><ellipse cx="106.835" cy="98.087" fill="#fff" fill-opacity=".11" rx="7.584" ry="2.592" transform="rotate(-31.022 106.835 98.087)"/></svg>