<svg xmlns="http://www.w3.org/2000/svg" width="90" height="90"><path fill="#FFF" d="M87.5 45c0 11.736-4.15 21.753-12.448 30.052C66.753 83.351 56.736 87.5 45 87.5s-21.753-4.15-30.052-12.448C6.649 66.753 2.5 56.736 2.5 45s4.15-21.753 12.448-30.052C23.247 6.649 33.264 2.5 45 2.5s21.753 4.15 30.052 12.448C83.351 23.247 87.5 33.264 87.5 45c0 .495-.009.989-.026 1.483"/><path d="M45 0C20 0 0 20 0 45s20 45 45 45 45-20 45-45S70 0 45 0zM6 54l17.5-11.5V41c0-9 6.5-16 15.5-17h2c6 0 11.5 3 14.5 8 1.5-.5 3-.5 4.5-.5 2 0 4 0 6 .5 3.5 1 7 2.5 10 4.5-3-1-6-1.5-9.5-1.5-6 0-11 2-14.5 7-3.5 4.5-5.5 10-5.5 16 0 7.5-2 14.5-6.5 21-1.5 2-2.5 3.5-4 5C21 80.5 9.5 69 6 54z"/><path d="M50 32c0 .69-.244 1.28-.732 1.768a2.409 2.409 0 0 1-1.768.732 2.41 2.41 0 0 1-1.768-.732A2.409 2.409 0 0 1 45 32c0-.69.244-1.28.732-1.768A2.409 2.409 0 0 1 47.5 29.5c.69 0 1.28.244 1.768.732a2.409 2.409 0 0 1 .73 1.855"/></svg>