<svg xmlns="http://www.w3.org/2000/svg" width="110" height="78" fill="none" viewBox="0 0 110 78"><style>path{fill:#000}@media (prefers-color-scheme:dark){path{fill:#fff}}</style><path d="M106.69 33.89c-2.179 0-3.631-1.278-3.631-3.9V14.928C103.059 5.312 99.098 0 88.864 0h-4.753v10.153h1.452c4.028 0 5.942 2.22 5.942 6.187v13.314c0 5.782 1.717 8.136 5.48 9.346-3.763 1.143-5.48 3.564-5.48 9.346v9.885c0 2.757 0 5.447-.726 8.203-.726 2.556-1.915 4.976-3.565 7.06-.924 1.211-1.98 2.22-3.17 3.161V78h4.754c10.234 0 14.195-5.312 14.195-14.928V48.01c0-2.69 1.386-3.9 3.631-3.9h2.707V33.957h-2.641v-.067ZM74.34 15.333H59.683a.597.597 0 0 1-.594-.605v-1.143c0-.336.264-.605.594-.605h14.723c.33 0 .594.269.594.605v1.143c0 .336-.33.605-.66.605Zm2.508 14.524H66.153a.597.597 0 0 1-.594-.606v-1.143c0-.336.264-.605.594-.605h10.695c.33 0 .594.27.594.605v1.143c0 .27-.263.606-.594.606Zm4.226-7.262H59.683a.597.597 0 0 1-.594-.605v-1.143c0-.337.264-.606.594-.606h21.325c.33 0 .594.27.594.605v1.144c0 .269-.198.605-.528.605Zm-38.359-3.969c1.453 0 2.905.134 4.292.47V16.34c0-3.9 1.98-6.187 5.942-6.187H54.4V0h-4.753C39.414 0 35.453 5.312 35.453 14.928v4.975c2.31-.806 4.754-1.277 7.262-1.277Z"/><path d="M85.563 55.204c-1.056-8.54-7.526-15.668-15.845-17.281-2.31-.471-4.621-.538-6.866-.135-.066 0-.066-.067-.132-.067-3.631-7.733-11.422-12.843-19.872-12.843-8.451 0-16.175 4.976-19.873 12.708-.066 0-.066.068-.132.068a19.671 19.671 0 0 0-7.13.47C7.526 40.141 1.32 47.134.198 55.607A17.328 17.328 0 0 0 0 58.162c0 2.555 1.717 4.909 4.225 5.245a4.978 4.978 0 0 0 5.744-5.043c0-.47 0-1.009.066-1.48.528-4.303 3.763-7.934 7.989-8.943 1.32-.336 2.64-.403 3.895-.201 4.027.538 7.988-1.547 9.705-5.178 1.255-2.69 3.235-5.043 5.876-6.32 2.905-1.413 6.206-1.614 9.243-.538 3.169 1.143 5.546 3.563 6.998 6.59 1.519 2.958 2.245 5.042 5.48 5.446 1.32.201 5.018.134 6.404.067 2.707 0 5.414.941 7.328 2.891a10.332 10.332 0 0 1 2.575 4.909c.594 3.026-.132 6.052-1.915 8.338-1.254 1.614-2.97 2.824-4.885 3.362-.924.27-1.849.336-2.773.336H51.364c-2.904 0-5.215-2.353-5.215-5.312V42.63c0-.806-.66-1.479-1.453-1.479H42.65c-4.028.067-7.263 4.64-7.263 9.481v17.685c0 5.245 4.16 9.48 9.31 9.48l23.239-.067c5.281-.538 10.167-3.294 13.468-7.53 3.301-4.102 4.82-9.482 4.16-14.995Z"/></svg>