<svg xmlns="http://www.w3.org/2000/svg" width="379.955" height="380.251" overflow="visible" viewBox="0 0 379.955 380.251"><g transform="matrix(2.17444 0 0 2.17437 -218.687 -223.172)"><linearGradient id="a" x1="187.947" x2="187.947" y1="123.859" y2="258.865" gradientUnits="userSpaceOnUse"><stop offset="0" stop-color="#BF0000"/><stop offset="1" stop-color="#8F0000"/></linearGradient><path fill="url(#a)" d="M100.572 108.605v7.715a5.857 5.857 0 0 1 5.85 5.85 5.857 5.857 0 0 1-5.85 5.852v7.715a5.857 5.857 0 0 1 5.85 5.85 5.857 5.857 0 0 1-5.85 5.852v7.71c3.226 0 5.85 2.62 5.85 5.85 0 3.23-2.624 5.85-5.85 5.85v7.71c3.226 0 5.85 2.62 5.85 5.85a5.858 5.858 0 0 1-5.85 5.85v7.712a5.856 5.856 0 0 1 5.85 5.85 5.857 5.857 0 0 1-5.85 5.852v7.712c3.226 0 5.85 2.62 5.85 5.85a5.857 5.857 0 0 1-5.85 5.85v7.715a5.856 5.856 0 0 1 5.85 5.85 5.858 5.858 0 0 1-5.85 5.853v7.713a5.856 5.856 0 0 1 5.85 5.85 5.856 5.856 0 0 1-5.85 5.85v7.72c1.54 0 3.048.624 4.138 1.714a5.883 5.883 0 0 1 1.713 4.135h7.715a5.856 5.856 0 0 1 5.85-5.85 5.856 5.856 0 0 1 5.852 5.85h7.715a5.856 5.856 0 0 1 5.85-5.85 5.856 5.856 0 0 1 5.852 5.85h7.715a5.856 5.856 0 0 1 5.85-5.85 5.856 5.856 0 0 1 5.852 5.85h7.715c0-3.228 2.62-5.85 5.85-5.85 3.22 0 5.85 2.622 5.85 5.85h7.71c0-3.228 2.62-5.85 5.85-5.85 3.22 0 5.85 2.622 5.85 5.85h7.71c0-3.228 2.62-5.85 5.85-5.85 3.22 0 5.85 2.622 5.85 5.85h7.71a5.854 5.854 0 0 1 5.85-5.85 5.856 5.856 0 0 1 5.85 5.85h7.715a5.856 5.856 0 0 1 5.85-5.85 5.855 5.855 0 0 1 5.853 5.85h7.72c0-1.54.625-3.05 1.715-4.138a5.883 5.883 0 0 1 4.135-1.714v-7.716a5.859 5.859 0 0 1-5.85-5.85c0-3.23 2.627-5.85 5.854-5.85V244.5c-3.23 0-5.854-2.628-5.854-5.855s2.63-5.85 5.856-5.85v-7.71a5.86 5.86 0 0 1-5.853-5.853c0-3.225 2.628-5.85 5.855-5.85v-7.71a5.856 5.856 0 0 1-5.85-5.85 5.856 5.856 0 0 1 5.852-5.85v-7.716a5.857 5.857 0 0 1-5.855-5.85c0-3.223 2.627-5.85 5.854-5.85v-7.71a5.86 5.86 0 0 1-5.854-5.855c0-3.23 2.626-5.85 5.853-5.85v-7.713a5.859 5.859 0 0 1-5.854-5.853 5.86 5.86 0 0 1 5.854-5.85v-7.714a5.859 5.859 0 0 1-5.855-5.85 5.857 5.857 0 0 1 5.853-5.85v-7.72c-1.54 0-3.05-.627-4.14-1.715a5.896 5.896 0 0 1-1.714-4.14h-7.71a5.858 5.858 0 0 1-5.85 5.852 5.858 5.858 0 0 1-5.85-5.853h-7.716a5.856 5.856 0 0 1-5.85 5.85 5.857 5.857 0 0 1-5.85-5.852h-7.715c0 3.228-2.63 5.853-5.856 5.853s-5.85-2.626-5.85-5.853h-7.71a5.855 5.855 0 0 1-5.85 5.85 5.859 5.859 0 0 1-5.85-5.852h-7.71a5.857 5.857 0 0 1-5.85 5.853 5.855 5.855 0 0 1-5.852-5.85h-7.714a5.858 5.858 0 0 1-5.85 5.854 5.86 5.86 0 0 1-5.852-5.853h-7.713a5.857 5.857 0 0 1-5.85 5.85 5.853 5.853 0 0 1-5.85-5.85h-7.72a5.856 5.856 0 0 1-5.85 5.85 5.856 5.856 0 0 1-5.85-5.85h-7.72a5.91 5.91 0 0 1-1.71 4.14 5.91 5.91 0 0 1-4.14 1.71z"/><path fill="#fff" d="M249.444 172.68H162.24l4.55-21.292h53.15l4.876-22.918h-76.394l-24.056 113.454h23.08l10.564-49.576h55.36l-48.104 47.625 8.452 14.953c3.9-2.6 10.24-2.926 14.628-2.926 7.803 0 15.442 2.602 23.404 2.602 7.3 0 14.775-.488 26.967-6.34l4.26-19.992c-8.29 3.412-20.558 6.664-31.227 6.664-4.386 0-8.45-.975-12.676-1.625l46.63-45.35 3.74-15.28z"/></g></svg>