<svg xmlns="http://www.w3.org/2000/svg" id="svg15513" width="146" height="238" version="1.1" viewBox="0 0 146 238"><style id="style15499" type="text/css">path{fill:none;stroke:#000;stroke-width:20}</style><path id="path15501" d="M84.5 13.5c-39.052 0-71 31.948-71 71v115h27v-115c0-24.46 19.54-44 44-44h23v-27z" style="color:#000;fill:#f50;-inkscape-stroke:none;stroke:none"/><path id="path15503" d="M84.5 88.25c-39.052 0-71 31.948-71 71v40.25h27v-40.25c0-24.46 19.54-44 44-44h23v-27z" style="color:#000;fill:#c00;-inkscape-stroke:none;stroke:none"/><path id="circle15505" d="M119 0c-14.817 0-27 12.183-27 27s12.183 27 27 27 27-12.183 27-27-12.183-27-27-27Zm0 16c6.17 0 11 4.83 11 11s-4.83 11-11 11-11-4.83-11-11 4.83-11 11-11z" style="color:#000;fill:#f50;-inkscape-stroke:none;stroke:none"/><path id="circle15507" d="M119 74.75c-14.817 0-27 12.183-27 27s12.183 27 27 27 27-12.183 27-27-12.183-27-27-27zm0 16c6.17 0 11 4.83 11 11s-4.83 11-11 11-11-4.83-11-11 4.83-11 11-11z" style="color:#000;fill:#c00;-inkscape-stroke:none;stroke:none"/><path id="circle15509" d="M27 184c-14.817 0-27 12.183-27 27s12.183 27 27 27 27-12.183 27-27-12.183-27-27-27zm0 16c6.17 0 11 4.83 11 11s-4.83 11-11 11-11-4.83-11-11 4.83-11 11-11z" style="color:#000;fill:#c00;-inkscape-stroke:none;stroke:none"/></svg>