<svg xmlns="http://www.w3.org/2000/svg" width="24" height="24" viewBox="0 0 24 24"><defs><clipPath id="clip-path"><path d="M18 11v2h3a1 1 0 0 0 1-1 1 1 0 0 0-1-1Z" style="clip-rule:evenodd;fill:#2683fb"/></clipPath><clipPath id="clip-path-2"><path d="M0 0h24v24H0z" class="cls-2"/></clipPath><clipPath id="clip-path-3"><path d="M2 8v1h9.46a1 1 0 0 1 .84.45l1.33 2a1 1 0 0 1 0 1.11l-1.33 2a1 1 0 0 1-.84.45H2v1a1 1 0 0 0 1 1h9.46a1 1 0 0 0 .84-.45L15 14h2a1 1 0 0 0 1-1v-2a1 1 0 0 0-1-1h-2l-1.7-2.55a1 1 0 0 0-.84-.45H3a1 1 0 0 0-1 1Z" style="fill:#a6cafd;clip-rule:evenodd"/></clipPath><clipPath id="clip-path-4"><path d="M0 0h24v24H0z" class="cls-4"/></clipPath><clipPath id="clip-path-5"><path d="M15 18h-3.46a1 1 0 0 1-.84-.45L8 13.45a1 1 0 0 0-.87-.45H2v2h2v-1h1.46a1 1 0 0 1 .84.45l3.4 5.1a1 1 0 0 0 .84.45H16a1 1 0 0 0 1-1v-2h4a1 1 0 0 0 1-1 1 1 0 0 0-1-1h-5a1 1 0 0 0-1 1Z" class="cls-5"/></clipPath><clipPath id="clip-path-6"><path d="M0 0h24v24H0z" class="cls-6"/></clipPath><clipPath id="clip-path-7"><path d="M17 7V5a1 1 0 0 0-1-1h-5.46a1 1 0 0 0-.84.45l-3.4 5.1a1 1 0 0 1-.84.45H4V9H2v2h5.13a1 1 0 0 0 .87-.45l2.74-4.1a1 1 0 0 1 .8-.45H15v2a1 1 0 0 0 1 1h5a1 1 0 0 0 1-1 1 1 0 0 0-1-1Z" class="cls-5"/></clipPath><clipPath id="clip-path-9"><circle cx="10.5" cy="12" r="1.25" class="cls-2"/></clipPath><style>.cls-2{fill:#2683fb}.cls-5{clip-rule:evenodd}.cls-4{fill:#a6cafd}.cls-14,.cls-5,.cls-6{fill:#559cfc}.cls-14{fill-rule:evenodd}.cls-10{clip-path:url(#clip-path-2)}.cls-16{clip-path:url(#clip-path-6)}</style></defs><g data-name="Product Icons"><g data-name="colored-32/cloud-iot-edge"><path id="Rectangle" d="M0 0h24v24H0z" style="fill:none"/></g><path d="M18 11v2h3a1 1 0 0 0 1-1 1 1 0 0 0-1-1Z" style="fill-rule:evenodd;fill:#2683fb"/><g style="clip-path:url(#clip-path)"><path d="M0 0h24v24H0z" class="cls-2"/><g class="cls-10"><path d="M14 6h13v12H14z" class="cls-2"/></g></g><path d="M2 8v1h9.46a1 1 0 0 1 .84.45l1.33 2a1 1 0 0 1 0 1.11l-1.33 2a1 1 0 0 1-.84.45H2v1a1 1 0 0 0 1 1h9.46a1 1 0 0 0 .84-.45L15 14h2a1 1 0 0 0 1-1v-2a1 1 0 0 0-1-1h-2l-1.7-2.55a1 1 0 0 0-.84-.45H3a1 1 0 0 0-1 1Z" style="fill-rule:evenodd;fill:#a6cafd"/><g style="clip-path:url(#clip-path-3)"><path d="M0 0h24v24H0z" class="cls-4"/><path d="M-3 2h27v20H-3z" class="cls-4" style="clip-path:url(#clip-path-4)"/></g><path d="M15 18h-3.46a1 1 0 0 1-.84-.45L8 13.45a1 1 0 0 0-.87-.45H2v2h2v-1h1.46a1 1 0 0 1 .84.45l3.4 5.1a1 1 0 0 0 .84.45H16a1 1 0 0 0 1-1v-2h4a1 1 0 0 0 1-1 1 1 0 0 0-1-1h-5a1 1 0 0 0-1 1Z" class="cls-14"/><g style="clip-path:url(#clip-path-5)"><path d="M0 0h24v24H0z" class="cls-6"/><g class="cls-16"><path d="M-3 8h30v17H-3z" class="cls-6"/></g></g><path d="M17 7V5a1 1 0 0 0-1-1h-5.46a1 1 0 0 0-.84.45l-3.4 5.1a1 1 0 0 1-.84.45H4V9H2v2h5.13a1 1 0 0 0 .87-.45l2.74-4.1a1 1 0 0 1 .8-.45H15v2a1 1 0 0 0 1 1h5a1 1 0 0 0 1-1 1 1 0 0 0-1-1Z" class="cls-14"/><g style="clip-path:url(#clip-path-7)"><path d="M0 0h24v24H0z" class="cls-6"/><g class="cls-16"><path d="M-3-1h30v17H-3z" class="cls-6"/></g></g><circle cx="10.5" cy="12" r="1.25" class="cls-2"/><g style="clip-path:url(#clip-path-9)"><path d="M0 0h24v24H0z" class="cls-2"/><g class="cls-10"><path d="M4.25 5.75h12.5v12.5H4.25z" class="cls-2"/></g></g><rect width="6.52" height="2" x="2" y="18" class="cls-2" rx=".97"/><rect width="6.52" height="2" x="2" y="4" class="cls-2" rx=".97"/></g></svg>