<svg xmlns="http://www.w3.org/2000/svg" width="24" height="24" viewBox="0 0 24 24"><path d="m16.38 5.77-5.09 12.45 1.42-12.45h3.67z" style="fill:#669df6;fill-rule:evenodd"/><path d="m12.71 5.77-1.42 12.45H7.62l5.09-12.45zm-9 8.88-1.46 3.57h2.57l.41-3.57Zm2.12-5.16-.41 3.58H4.35l1.48-3.58z" style="fill:#aecbfa;fill-rule:evenodd"/><path d="m9.48 9.49-.01.03-1.45 3.55h-2.6l.41-3.58h3.65zm12.27-3.72-5.1 12.46 1.43-12.46h3.67z" style="fill:#669df6;fill-rule:evenodd"/><path d="m18.08 5.77-1.43 12.46h-3.67l5.1-12.46z" style="fill:#aecbfa;fill-rule:evenodd"/><path d="m7.38 14.65-1.47 3.57H4.82l.41-3.57h2.15z" style="fill:#669df6;fill-rule:evenodd"/></svg>