<svg xmlns="http://www.w3.org/2000/svg" width="24" height="24" viewBox="0 0 24 24"><g fill="none" fill-rule="evenodd"><path fill="#aecbfa" fill-rule="nonzero" d="m12.666 2.246 6.195 3.626c.42.23.683.667.688 1.145v7.958c-.007.476-.27.913-.688 1.144l-9.87 5.772a.338.338 0 0 1-.51-.281v-3.503l-3.386-1.988a1.329 1.329 0 0 1-.689-1.144V7.017c.006-.478.269-.915.689-1.145l6.194-3.626a1.382 1.382 0 0 1 1.377 0z"/><path fill="#185abc" d="M9.82 13.236a.714.714 0 0 0-1.43 0v1.429a.714.714 0 0 0 1.43 0z"/><path fill="#4285f4" d="M9.82 11.094a.714.714 0 1 0-1.43 0 .714.714 0 0 0 1.43 0zm2.856 0a.714.714 0 1 0-1.428 0 .714.714 0 0 0 1.428 0z"/><path fill="#669df6" d="M12.676 8.95a.714.714 0 1 0-1.428 0 .714.714 0 0 0 1.428 0zm2.857-2.142a.714.714 0 1 0-1.428 0 .714.714 0 0 0 1.428 0z"/><path fill="#185abc" d="M15.533 11.094a.714.714 0 1 0-1.428 0 .714.714 0 0 0 1.428 0z"/><path fill="#4285f4" d="M15.533 8.95a.714.714 0 1 0-1.428 0 .714.714 0 0 0 1.428 0z"/><path fill="#185abc" d="M11.248 13.236a.714.714 0 0 1 1.428 0v1.429a.714.714 0 0 1-1.428 0zm4.285 0a.714.714 0 1 0-1.428 0v1.429a.714.714 0 0 0 1.428 0z"/></g></svg>