<svg xmlns="http://www.w3.org/2000/svg" width="24" height="24" viewBox="0 0 24 24"><defs><style>.cls-1{fill:#4285f4}</style></defs><g data-name="Product Icons"><path d="m2.81 9.37 2.38-4.24h3.06V7H6.26L4.94 9.34l.81 1.36-1.59.93-1.35-2.26z" class="cls-1"/><path d="m14.5 13.07 2.5-1.44 2.5 1.44v2.89L17 17.4l-2.5-1.44v-2.89zm-10 0L7 11.63l2.5 1.44v2.89L7 17.4l-2.5-1.44v-2.89zm5-8.48L12 3.15l2.5 1.44v2.88L12 8.92 9.5 7.47V4.59z" style="fill:#aecbfa"/><path d="m17 11.63 2.5 1.44v2.89L17 17.4v-5.77zm-10 0 2.5 1.44v2.89L7 17.4v-5.77zm5-8.48 2.5 1.44v2.88L12 8.92V3.15zm6.25 7.55.81-1.35L17.74 7h-1.99V5.13h3.06l2.38 4.24-1.35 2.26-1.59-.93zM9.61 20.75l-1.48-2.46 1.6-.93.93 1.52h2.65l.94-1.52 1.6.92-1.49 2.47H9.61z" class="cls-1"/></g></svg>