<svg xmlns="http://www.w3.org/2000/svg" width="24" height="24" viewBox="0 0 24 24"><defs><style>.cls-1{fill:#aecbfa}.cls-2{fill:#669df6}.cls-3{fill:#4285f4}.cls-4{fill:#fff}</style></defs><g data-name="Product Icons"><path d="m7 6 1-1H2l1 1h4z" class="cls-1"/><path d="M7 6v4l1 1V5L7 6z" class="cls-2"/><path d="M3 6 2 5v6l1-1V6z" class="cls-1"/><path d="m3 10-1 1h6l-1-1H3z" class="cls-3"/><path d="M3 6h4v4H3z" class="cls-1"/><path d="m14 6 1-1H9l1 1h4z" class="cls-3"/><path d="M14 6v4l1 1V5l-1 1z" class="cls-1"/><path d="M10 6 9 5v6l1-1V6z" class="cls-3"/><path d="m10 10-1 1h6l-1-1h-4z" class="cls-1"/><path d="M10 6h4v4h-4z" class="cls-4"/><path d="m21 6 1-1h-6l1 1h4z" class="cls-3"/><path d="M21 6v4l1 1V5l-1 1z" class="cls-1"/><path d="m17 6-1-1v6l1-1V6z" class="cls-3"/><path d="m17 10-1 1h6l-1-1h-4z" class="cls-1"/><path d="M17 6h4v4h-4z" class="cls-4"/><path d="m7 14 1-1H2l1 1h4z" class="cls-3"/><path d="M7 14v4l1 1v-6l-1 1z" class="cls-1"/><path d="m3 14-1-1v6l1-1v-4z" class="cls-3"/><path d="m3 18-1 1h6l-1-1H3z" class="cls-1"/><path d="M3 14h4v4H3z" class="cls-4"/><path d="m14 14 1-1H9l1 1h4z" class="cls-1"/><path d="M14 14v4l1 1v-6l-1 1z" class="cls-2"/><path d="m10 14-1-1v6l1-1v-4z" class="cls-1"/><path d="m10 18-1 1h6l-1-1h-4z" class="cls-3"/><path d="M10 14h4v4h-4zm11 0 1-1h-6l1 1h4z" class="cls-1"/><path d="M21 14v4l1 1v-6l-1 1z" class="cls-2"/><path d="m17 14-1-1v6l1-1v-4z" class="cls-1"/><path d="m17 18-1 1h6l-1-1h-4z" class="cls-3"/><path d="M17 14h4v4h-4z" class="cls-1"/></g></svg>