<svg xmlns="http://www.w3.org/2000/svg" width="24" height="24" viewBox="0 0 24 24"><defs><style>.cls-1{fill:#669df6}.cls-2{fill:#4285f4}</style></defs><g data-name="Product Icons"><path d="M14.73 11.28h4.18v1.38h-4.18z" class="cls-1"/><path d="M17.95 6.12h1.38v11.71h-1.38z" class="cls-1"/><rect width="4.68" height="4.68" x="16.3" y="17.32" class="cls-2" rx=".28"/><rect width="4.68" height="4.68" x="16.3" y="2" class="cls-2" rx=".28"/><path d="M6.98 11.28h4.28v1.38H6.98z" class="cls-1"/><rect width="4.68" height="4.68" x="3.03" y="9.63" class="cls-2" rx=".28"/><path d="M13 14.17a2.2 2.2 0 1 1 2.2-2.2 2.19 2.19 0 0 1-2.2 2.2Zm0-3.57a1.38 1.38 0 1 0 1.33 1.4A1.37 1.37 0 0 0 13 10.6Z" class="cls-2"/></g></svg>