<svg xmlns="http://www.w3.org/2000/svg" width="24" height="24" viewBox="0 0 24 24"><defs><style>.cls-1{fill:#4285f4}.cls-2{fill:#669df6}</style></defs><g data-name="Product Icons"><g data-name="colored-32/TPU"><path d="M6.48 9.62a.37.37 0 1 1-.05-.74l2.3-.32a.37.37 0 0 1 .42.32.38.38 0 0 1-.32.43l-2.3.31Zm2.82-.327.232-.713 4.145 1.352-.232.713z" class="cls-1"/><path id="Shape-2" d="M9.18 9.16h-.11a.37.37 0 0 1-.24-.46l.83-2.84a.37.37 0 0 1 .46-.24.36.36 0 0 1 .26.45l-.84 2.81a.38.38 0 0 1-.36.28Z" class="cls-1" data-name="Shape"/><path id="Shape-3" d="M14.31 10.56a.36.36 0 0 1-.31-.17.36.36 0 0 1 0-.39l1.67-4.23a.38.38 0 0 1 .47-.18.38.38 0 0 1 .23.45l-1.68 4.24a.39.39 0 0 1-.38.28Z" class="cls-1" data-name="Shape"/><path id="Rectangle-path-2" d="M5.35 14.95h5.03v.75H5.35z" class="cls-1" data-name="Rectangle-path" transform="rotate(-38.61 7.87 15.32)"/><path id="Rectangle-path-3" d="m14.12 10.71.29-.69 3.64 1.59-.3.68-3.63-1.58z" class="cls-1" data-name="Rectangle-path"/><path id="Rectangle-path-4" d="m13.99 14.59.52-.55 3.23 3.05-.52.54-3.23-3.04z" class="cls-1" data-name="Rectangle-path"/><path id="Rectangle-path-5" d="M9.18 9h.75v4.06h-.75z" class="cls-1" data-name="Rectangle-path" transform="rotate(-11.48 9.545 11.008)"/><path id="Rectangle-path-6" d="m9.96 13.6 4.1-3.6.5.56-4.1 3.6-.5-.56z" class="cls-1" data-name="Rectangle-path"/><path id="Rectangle-path-7" d="m13.75 14.22.24-3.97.75.05-.25 3.97-.74-.05z" class="cls-1" data-name="Rectangle-path"/><circle id="Oval" cx="10.01" cy="13.82" r="1.36" class="cls-1"/><circle id="Oval-2" cx="14.37" cy="10.36" r="1.61" class="cls-1" data-name="Oval"/><circle id="Oval-3" cx="14.36" cy="14.54" r=".84" class="cls-1" data-name="Oval"/><circle id="Oval-4" cx="9.04" cy="8.67" r=".99" class="cls-1" data-name="Oval"/></g><path d="M13 3h-2v4h2V3zm4 0h-2v4h2V3zM9 3H7v4h2V3zm4 14h-2v4h2v-4zm4 0h-2v4h2v-4zm-8 0H7v4h2v-4zm-2-6H3v2h4v-2zm0-4H3v2h4V7zm0 8H3v2h4v-2zm14-4h-4v2h4v-2zm0-4h-4v2h4V7zm0 8h-4v2h4v-2z" class="cls-2"/><path d="M18 5H6a1 1 0 0 0-1 1v12a1 1 0 0 0 1 1h12a1 1 0 0 0 1-1V6a1 1 0 0 0-1-1Zm-1 11.47a.53.53 0 0 1-.53.53H7.53a.53.53 0 0 1-.53-.53V7.53A.53.53 0 0 1 7.53 7h8.94a.53.53 0 0 1 .53.53Z" class="cls-2"/></g></svg>