<svg xmlns="http://www.w3.org/2000/svg" width="24" height="24" viewBox="0 0 24 24"><defs><style>.cls-2{fill:#aecbfa}.cls-3{fill:#669df6}</style></defs><g data-name="Product Icons"><path d="M5.87 20.49a1.51 1.51 0 0 1-3 0v-4.28a1.51 1.51 0 1 1 3 0Zm5.13 0a1.51 1.51 0 0 1-3 0v-4.28a1.51 1.51 0 0 1 3 0Zm5.06 0a1.51 1.51 0 0 1-3 0v-4.28a1.51 1.51 0 0 1 3 0Zm5.09 0a1.51 1.51 0 0 1-3 0v-4.28a1.51 1.51 0 1 1 3 0Z" style="fill:#4285f4"/><circle cx="9.45" cy="11.97" r="1.51" class="cls-2"/><circle cx="14.55" cy="11.97" r="1.51" class="cls-3"/><circle cx="14.55" cy="7.74" r="1.51" class="cls-2"/><circle cx="19.64" cy="11.97" r="1.51" class="cls-3"/><circle cx="19.64" cy="7.74" r="1.51" class="cls-3"/><circle cx="19.64" cy="3.51" r="1.51" class="cls-2"/></g></svg>