<svg xmlns="http://www.w3.org/2000/svg" width="24" height="24" viewBox="0 0 24 24"><defs><style>.cls-1{fill:#4285f4}.cls-2{fill:#669df6}</style></defs><g data-name="Product Icons"><path d="M11.19 6.86h1.62v10.27h-1.62z" class="cls-1"/><path d="M2 11.19h2.7v1.62H2z" class="cls-2"/><rect width="4.86" height="6.49" x="4.43" y="8.76" class="cls-1" rx=".24"/><path d="M11.19 6.86h1.62v10.27h-1.62zm8.11 4.33H22v1.62h-2.7zM6.59 17.14v1.33a.29.29 0 0 0 .29.29h10.24a.29.29 0 0 0 .29-.29v-1.33Zm10.53-11.9H6.88a.29.29 0 0 0-.29.29v1.33h10.82V5.53a.29.29 0 0 0-.29-.29Z" class="cls-2"/><rect width="4.86" height="6.49" x="14.7" y="8.76" class="cls-1" rx=".24"/></g></svg>