<svg xmlns="http://www.w3.org/2000/svg" xml:space="preserve" width="246.667" height="192" viewBox="0 0 246.667 192"><defs><clipPath id="a" clipPathUnits="userSpaceOnUse"><path d="M813.98 1419.49c0 .74 0 .74 0 0 0 .74 0 .74 0 0h1.532-1.532zm704.26-648.01c-41.25 46.532-129.72 141.02-332.22 328.52-306.758 285-363.008 315.74-371.25 319.49-8.29-3.01-63.75-33.75-366.02-318.75C295 956.02 185.512 848.75 123.238 782.73 96.25 754.262 77.5 731.762 75.231 729.488 81.25 718.98 123.98 657.5 453.238 353.012 594.262 222.5 697.73 130.23 762.27 77.731c8.98-7.5 51.71-39.72 51.71-39.72h1.532C820 38.75 868.75 56.762 1188.24 357.5c196.53 185.23 285 279.77 328.52 326.988zM72.27 722.73c1.48 2.27 1.48 3.75 1.48 5.282 0 .738-1.48-5.282-1.48-5.282z"/></clipPath><clipPath id="b" clipPathUnits="userSpaceOnUse"><path d="M70 30h1450v1400H70Z"/></clipPath></defs><path d="m1461.25 676.25 71.25 128.98c-53.98 56.25-143.24 144.032-293.24 282.78-349.49 323.98-370.51 322.5-378.748 322.5-9.032 0-25.512 5.97-373.524-321.76C96.25 720.512 109.77 708.52 109.77 708.52s-12.04-20.282 381.71-384.032C844.77-2.5 851.48 6.48 861.25 6.48c9.77 0 30.738-5.23 379.49 322.5 188.24 177.04 281.99 271.532 327.78 321.758z" style="fill:#000;fill-opacity:1;fill-rule:nonzero;stroke:none" transform="matrix(.13333 0 0 -.13333 0 192)"/><path d="m1461.25 676.25 71.25 128.98c-53.98 56.25-143.24 144.032-293.24 282.78-349.49 323.98-370.51 322.5-378.748 322.5-9.032 0-25.512 5.97-373.524-321.76C96.25 720.512 109.77 708.52 109.77 708.52s-12.04-20.282 381.71-384.032C844.77-2.5 851.48 6.48 861.25 6.48c9.77 0 30.738-5.23 379.49 322.5 188.24 177.04 281.99 271.532 327.78 321.758z" style="fill:none;stroke:#1a171b;stroke-width:7.70475;stroke-linecap:butt;stroke-linejoin:miter;stroke-miterlimit:4;stroke-dasharray:none;stroke-opacity:1" transform="matrix(.13333 0 0 -.13333 0 192)"/><path d="m1461.25 676.25 60.74 111.02c-45.74 50.968-139.49 145.46-329.26 320.97-347.218 321.02-365.968 322.5-378.75 322.5-12.73 0-24.718 6.76-373.468-321.76C49.769 740.738 63.238 728.75 63.238 728.75S51.25 708.52 445 344.77C796.02 20 804.262 26.762 814.77 26.762c10.46 0 30.742-5.281 379.49 322.5 179.26 168.75 272.22 262.5 320.23 314.258z" style="fill:#ffe400;fill-opacity:1;fill-rule:nonzero;stroke:none" transform="matrix(.13333 0 0 -.13333 0 192)"/><path d="m1461.25 676.25 60.74 111.02c-45.74 50.968-139.49 145.46-329.26 320.97-347.218 321.02-365.968 322.5-378.75 322.5-12.73 0-24.718 6.76-373.468-321.76C49.769 740.738 63.238 728.75 63.238 728.75S51.25 708.52 445 344.77C796.02 20 804.262 26.762 814.77 26.762c10.46 0 30.742-5.281 379.49 322.5 179.26 168.75 272.22 262.5 320.23 314.258z" style="fill:none;stroke:#1a171b;stroke-width:11.5568;stroke-linecap:butt;stroke-linejoin:bevel;stroke-miterlimit:4;stroke-dasharray:none;stroke-opacity:1" transform="matrix(.13333 0 0 -.13333 0 192)"/><g clip-path="url(#a)" transform="matrix(.13333 0 0 -.13333 0 192)"><g clip-path="url(#b)"><path d="M646.762 211.25s.738-.738 1.476-.738c-1.476.738-3.008 3.008-37.5 41.988l-2.218 2.27-26.25 26.992-364.54 365.226-59.21 59.262-2.27 3.75c0 .738 1.48 6.02 1.48 6.02 2.27 2.218 284.258 274.492 439.54 405.74 0 0 225.742 182.22 229.492 185.97 0 .79-6.762 126.02-6.762 130.51-3.75-3.01-345-307.5-345-307.5-126.762-111.76-367.5-375.002-377.27-384.72-5.23-5.282-8.242-12.04-8.242-19.54s3.012-14.21 9.031-19.492l1.481-1.476c77.27-73.524 267.73-255 369.77-353.242 36.71-35.282 50.23-46.532 63.75-57.04l60.742-49.492s47.218-35.968 65.968-50.226c-5.968 6.758-13.468 15.738-13.468 15.738z" style="fill:#ffe50c;fill-opacity:1;fill-rule:nonzero;stroke:none"/><path d="m604.77 251.762-25.508 26.988L214.77 643.98l-59.258 59.258-3.012 4.492c0 1.532.738 9.032.738 9.032.742 1.476 277.5 270 440.282 408.008 0 0 224.21 180.74 227.96 184.49 0 .74-6.71 114.72-6.71 119.26-3.75-3.01-337.5-300.79-337.5-300.79-123.008-107.96-352.5-360-377.27-384.718-4.488-4.492-7.5-10.512-7.5-16.532 0-5.968 2.27-11.992 7.5-16.48l1.48-1.48c75.79-72.782 264.77-252.04 369.77-353.29 36.762-35.23 50.23-46.48 63.012-56.992h-1.532c1.532 0 7.5-5.226 56.25-45 0 0 6.02-4.488 6.02-5.226 0 0 27.73-21.024 33.75-25.512-7.5 11.25-23.98 29.262-23.98 29.262z" style="fill:#ffe71c;fill-opacity:1;fill-rule:nonzero;stroke:none"/><path d="M602.5 250.23s0-.742 0 0l-25.512 26.25L212.5 641.762l-59.262 59.258-3.008 5.23v1.48l.79 9.77c1.48 3.75 282.73 276.02 441.71 410.23 0 0 222.782 180 227.27 183.75 0 .79-6.762 105.79-6.762 110.28-3.75-3.01-332.218-296.25-332.218-296.25-123.008-108.01-351.758-359.998-376.532-384.772-3.75-3.75-5.968-8.976-5.968-14.258 0-5.23 2.218-10.46 5.968-13.468l1.532-1.532c76.48-72.73 264.718-251.992 369.718-353.242 36.024-35.226 49.492-45.738 63.012-56.988 0 0 60.738-49.488 61.48-50.23 0 0 1.532-.79 6.02-4.54-2.27 1.532-3.75 3.75-3.75 3.75z" style="fill:#fee92f;fill-opacity:1;fill-rule:nonzero;stroke:none"/><path d="M209.488 639.488 150.23 698.75l-3.75 6.02-.742 1.48v1.48l.742 9.77c1.532 3.75 282.782 276.762 442.5 412.5 0 0 222.04 179.26 225.79 182.27 0 .74-6.758 96.71-6.758 101.25-3.75-3.01-326.25-291.02-326.25-291.02C359.488 1015.23 130 762.5 105.23 737.73c-3.75-2.96-5.23-7.5-5.23-11.25 0-4.492 1.48-8.242 5.23-11.25l1.532-1.48C182.5 641.762 370 463.238 476.48 360.512c36.02-35.282 49.54-45.742 62.27-56.25 0 0 14.262-11.25 26.25-21.024-30.738 31.532-150 150.742-355.512 356.25z" style="fill:#feec45;fill-opacity:1;fill-rule:nonzero;stroke:none"/><path d="m148.012 696.48-4.492 6.758-.79 2.274v1.476c0 .742.79 10.512.79 10.512 1.48 3.75 282.73 278.238 443.98 414.77 0 0 220.512 177.73 225 181.48 0 .74-6.762 87.73-6.762 92.27-3.75-3.01-320.968-286.53-320.968-286.53-121.532-106.48-351.758-360.002-376.532-384.72-3.008-2.27-4.488-6.02-4.488-9.032 0-3.008 1.48-6.758 4.488-8.976l1.532-1.532c59.21-56.25 259.492-247.5 369.718-353.242C491.48 350 501.25 341.02 508.75 334.262 467.5 376.988 148.012 696.48 148.012 696.48Z" style="fill:#feee5c;fill-opacity:1;fill-rule:nonzero;stroke:none"/><path d="m145 693.52-.738.742-3.75 5.968-1.532 3.008-.742 3.012c0 .738.742 11.25.742 11.25.79 3.75 282.782 280.512 445.508 417.73 0 0 219.032 177.04 223.524 180 0 .79-6.762 76.53-6.762 81.02-3.75-3.01-313.52-279.77-313.52-279.77-120.742-105.74-351.71-359.21-376.48-383.98-2.27-1.48-3.012-3.75-3.012-6.02 0-2.218.742-4.492 3.012-5.968 0 0 88.52-84.032 136.48-130.512C198.98 639.488 145 693.52 145 693.52Z" style="fill:#fef073;fill-opacity:1;fill-rule:nonzero;stroke:none"/><path d="m138.238 699.488-1.476 3.75-.742 3.75c0 .742.742 11.992.742 11.992.738 3.75 283.468 281.25 446.25 419.26 0 0 218.238 176.25 222.726 179.26 0 .74-6.758 70.51-6.758 75-3.75-3.01-309.718-276.76-309.718-276.76C368.52 1010 138.238 756.48 112.73 731.762c-1.48-1.532-2.218-3.012-2.218-4.492 0-1.532.738-3.008 2.218-4.54 0 0 18.75-17.96 28.52-26.992-1.48 1.532-3.012 3.75-3.012 3.75z" style="fill:#fef389;fill-opacity:1;fill-rule:nonzero;stroke:none"/><path d="M132.27 718.98c.742 3.75 283.468 283.52 447.73 422.27 0 0 216.762 174.77 221.25 178.52 0 .74-.738 15-.738 15s-5.282 38.24-6.024 47.96c-3.75-2.96-302.218-270-302.218-270-93.75-81.71-255-255-332.27-338.242l-43.52-45.738v.738s-.742-1.476-1.48-3.008c0-.742.738-1.48.738-1.48H115c1.48-.738 5.23-4.488 16.48-15 .79 3.012.79 8.98.79 8.98z" style="fill:#fdf59c;fill-opacity:1;fill-rule:nonzero;stroke:none"/><path d="M496.02 1108.24c-93.008-81.76-254.258-254.26-332.27-337.502 0 0-37.5-39.718-41.988-44.258.738-.742 4.488-4.492 5.968-5.23C146.48 741.48 417.27 1010 576.25 1145l3.75 3.01s209.262 168.75 215.23 173.98c0 .74-1.48 11.99-1.48 11.99s-3.012 29.26-3.75 36.76c-3.012-2.22-293.98-262.5-293.98-262.5z" style="fill:#fdf7ac;fill-opacity:1;fill-rule:nonzero;stroke:none"/><path d="M498.98 1105.23c-92.96-81.71-254.21-254.21-331.48-336.71 0-.79-1.48-1.532-3.75-4.54 0 0-6.762-7.5-11.988-12.73 75 75 288.008 283.52 422.218 397.5l3.75 3.01v-.74c.79 1.48 3.008 3.75 21.02 17.96 0 0 191.988 155.28 192.73 156.02 0 .74-.742 9.77-.742 9.77s-3.008 26.25-3.008 28.47c-4.492-3.75-288.75-258.01-288.75-258.01z" style="fill:#fdf8b8;fill-opacity:1;fill-rule:nonzero;stroke:none"/><path d="m940 1280 37.5-45 38.98-43.52 26.25-26.99c138.75-138.75 420.79-422.22 423.75-424.49.79-.738 1.53-1.48 1.53-2.27 0-.742-.74-1.48-.74-2.218-12.04-11.25-288.01-277.5-438.01-405L798.238 143.75 805 1.25l352.5 314.262c128.98 113.238 375 383.238 377.27 385.508 5.97 5.23 9.72 13.468 9.72 22.5 0 8.98-3.75 16.48-9.72 22.5l-1.53 1.48c-42.73 40.512-259.49 247.5-369.72 353.24-37.5 36.02-51.02 47.27-64.54 58.52l-60 49.49z" style="fill:#fee300;fill-opacity:1;fill-rule:nonzero;stroke:none"/><path d="M981.25 1237.27s-.738.74-1.48.74c1.48-.74 2.96-3.01 37.5-41.99l2.22-2.27 26.25-26.99 364.49-365.28 59.26-59.21 2.27-3.75c0-.79-1.53-6.02-1.53-6.02-2.22-2.27-284.21-274.488-438.75-405.738 0 0-225.742-182.274-229.492-186.024 0-.738 6.762-125.969 6.762-130.507 3.75 3.007 345 307.499 345 307.499 126.76 111.758 367.5 375 377.27 384.77 5.23 5.23 8.24 11.988 8.24 19.488s-3.01 14.262-9.03 19.492l-1.48 1.532c-77.27 73.468-267.73 255-369.77 353.238-36.71 35.23-50.23 46.48-63.75 56.99l-60.74 49.49s-47.22 36.02-65.97 50.28c5.23-6.76 12.73-15.74 12.73-15.74z" style="fill:#fde200;fill-opacity:1;fill-rule:nonzero;stroke:none"/><path d="m1023.24 1196.76 25.51-26.99 364.49-365.282 59.26-59.258 3.01-4.492c0-1.476-.74-8.976-.74-8.976-.79-1.532-277.5-270-440.28-408.012 0 0-224.26-180.738-228.01-184.488 0-.742 6.758-114.774 6.758-119.262 3.75 3.012 337.502 300.738 337.502 300.738 123.01 108.012 352.5 360 377.27 384.774 4.49 4.488 7.5 10.508 7.5 16.476 0 6.024-2.27 11.992-7.5 16.532l-1.53 1.48c-75.74 72.73-264.72 251.988-369.72 353.24-36.76 35.28-50.28 46.53-63.01 56.99h1.48c-1.48 0-7.5 5.28-56.25 45 0 0-5.97 4.54-5.97 5.28 0 0-27.78 20.97-33.748 25.51 8.238-11.25 23.978-29.26 23.978-29.26z" style="fill:#fce000;fill-opacity:1;fill-rule:nonzero;stroke:none"/><path d="m1052.5 1172.73 364.49-365.23 59.26-59.262 3.75-5.226.74-2.274-.74-9.718c-1.48-3.75-282.73-276.02-441.76-411.02 0 0-222.728-179.262-226.478-183.012 0-.738 6.758-102.726 6.758-107.219 3.75 2.961 330 294.719 330 294.719 122.96 108.012 351.71 360 376.48 384.774 3.75 3.75 6.02 8.238 6.02 12.726 0 5.282-2.27 9.774-6.02 12.782l-1.48 1.48c-75.79 72.73-264.77 251.988-369.77 353.24-36.02 35.28-49.49 45.74-63.01 56.99 0 0-47.22 39.03-55.51 45.79 6.76-8.29 17.27-19.54 17.27-19.54z" style="fill:#fade00;fill-opacity:1;fill-rule:nonzero;stroke:none"/><path d="m1479.26 751.25 4.49-6.02.74-2.218v-1.532l-.74-10.46c-1.48-3.75-282.73-277.5-443.24-414.032 0 0-221.248-178.468-224.998-181.476 0-.742 6.758-90.743 6.758-95.281 3.75 3.007 322.5 288.007 322.5 288.007 121.48 106.532 351.71 360 376.48 384.774 3.01 3.008 4.49 6.758 4.49 9.718 0 3.75-1.48 7.5-4.49 9.77l-1.48 1.48c-75.79 72.04-264.03 251.25-369.77 353.29-29.26 28.47-43.52 40.46-54.77 50.23 28.52-30 384.03-386.25 384.03-386.25z" style="fill:#f9dc00;fill-opacity:1;fill-rule:nonzero;stroke:none"/><path d="m1482.27 754.262.74-.742 3.75-6.02 1.48-3.012.74-3.008-.74-11.25c-.74-3.75-282.73-279.718-444.72-416.992 0 0-219.77-176.988-223.52-180.738 0-.738 6.762-79.488 6.762-83.238 3.75 3.008 314.998 281.25 314.998 281.25 121.48 106.476 351.76 359.258 376.48 383.976 2.27 2.274 3.75 4.492 3.75 6.762 0 2.27-.74 4.488-3.01 6.762 0 0-134.21 128.238-202.5 192.726 66.02-66.758 165.79-166.476 165.79-166.476z" style="fill:#f8da00;fill-opacity:1;fill-rule:nonzero;stroke:none"/><path d="m1483.75 755.738.74-1.476c.74-.742 1.53-2.274 4.49-6.762l1.53-3.75.74-3.012-.74-11.25c-.74-3.75-283.52-280.508-445.51-418.468 0 0-218.98-176.25-222.73-180 0-.79 6.71-73.52 6.71-78.008 3.75 3.007 311.25 278.238 311.25 278.238 120.79 105.738 351.02 359.262 376.53 383.98 1.48 1.532 3.01 3.75 3.01 5.282 0 1.476-.79 3.75-2.27 5.226 0 0-51.02 48.012-71.25 67.5 17.27-17.218 37.5-37.5 37.5-37.5z" style="fill:#f6d800;fill-opacity:1;fill-rule:nonzero;stroke:none"/><path d="m1492.73 746.02.79-3.75c0-.79-.79-12.04-.79-12.04-.74-3.75-283.47-281.992-446.99-420 0 0-218.24-175.46-221.99-179.21 0-.79 6.762-67.5 6.762-72.04 3.75 3.008 308.238 275.282 308.238 275.282 120 105.738 351.02 359.258 376.48 383.976 1.53 1.532 2.27 3.012 2.27 3.75 0 1.532-.74 2.274-1.48 3.75 0 0-16.53 15.742-23.29 21.762-.74-.738 0-1.48 0-1.48z" style="fill:#f5d600;fill-opacity:1;fill-rule:nonzero;stroke:none"/><path d="M1495 730.23c-.74-3.75-283.52-282.73-447.73-421.48-2.27-1.48-213.75-172.5-221.25-178.52 0-.742 1.48-15 1.48-15s4.488-46.48 5.23-50.968c3.75 3.007 304.54 271.476 304.54 271.476 92.96 81.762 255 255 332.22 338.242l43.52 45.79s.74 1.48 1.48 2.218c0 .742-.74 2.274-.74 2.274s-12.73 11.988-18.01 17.218c-.74-2.96-.74-11.25-.74-11.25z" style="fill:#f4d500;fill-opacity:1;fill-rule:nonzero;stroke:none"/><path d="M1498.75 729.488v-.738c-.74-3.012-284.26-284.262-448.52-423.75-.74-.738-1.48-1.48-3.75-3.012 0 0-215.23-173.976-215.968-174.718 0-.79 5.968-50.282 5.968-54.77 3.75 3.012 297.04 265.512 297.04 265.512 92.96 81.758 254.21 254.258 332.22 337.5 0-.742 6.02 5.968 6.02 5.968.74.79 33.75 35.282 36.76 39.032-.79 1.476-6.76 6.758-9.77 9.718.74 0 0-.742 0-.742z" style="fill:#f3d400;fill-opacity:1;fill-rule:nonzero;stroke:none"/></g></g><path d="m102.109 899.961 69.61 69.379 67.23-67.469-69.57-69.371zM1406.48 884.77h19.531v75.742h-19.531Z" style="fill:#ffe500;fill-opacity:1;fill-rule:nonzero;stroke:none" transform="matrix(.13333 0 0 -.13333 0 192)"/><path d="M906.25 978.52v-442.5H775.738v362.218l56.25 13.524-16.476 65.968zM378.98 882.5c54.032 2.27 132.782 6.02 182.27 0 63.012-7.5 145.512-23.98 152.27-112.5 2.96-41.988-11.25-78.012-70.508-125.23 0 0 60-65.282 114.718-127.5 0 0-68.242-64.54-105.742-95.282L517.73 644.77c30 23.242 66.02 56.992 66.02 96.71 0 38.29-36.02 56.25-48.75 56.25h-27.73V425.738H378.238V882.5Zm679.54-454.488V777.5H932.5V890h384.77V777.5h-126.02V428.012Z" style="fill:#000;fill-opacity:1;fill-rule:evenodd;stroke:none" transform="matrix(.13333 0 0 -.13333 0 192)"/><path d="m329.488 998.012-.738-111.024H193.012V783.52l125.226.742V677.73H195.23V498.52h-135v493.468c135 6.024 269.258 6.024 269.258 6.024z" style="fill:#000;fill-opacity:1;fill-rule:nonzero;stroke:none" transform="matrix(.13333 0 0 -.13333 0 192)"/><path d="m1725.23 716.02 87.04-3.008 34.49 224.258-107.27 8.98z" style="fill:#000;fill-opacity:1;fill-rule:evenodd;stroke:none" transform="matrix(.13333 0 0 -.13333 0 192)"/><path d="m1686.25 666.48 68.24 55.508 71.99-90-67.5-54.718-55.46 68.242z" style="fill:#000;fill-opacity:1;fill-rule:nonzero;stroke:none" transform="matrix(.13333 0 0 -.13333 0 192)"/><path d="M876.25 561.48H723.238l-.738 382.5 53.98 13.52-17.218 68.98H876.25Zm129.77 241.532S891.988 800 892.73 800L880 798.52v139.492h407.27V798.52h-13.52l-111.76 4.492V453.52h-155.23v349.492z" style="fill:#000;fill-opacity:1;fill-rule:evenodd;stroke:none" transform="matrix(.13333 0 0 -.13333 0 192)"/><path d="M1278.98 1048.98h4.54c44.21 0 172.5 2.27 346.48-7.5l19.49-1.48-183.01-340.512c37.5-.738 86.25-1.476 150.79 3.012l14.21.738V565.23h-388.47l180.74 349.54c-38.98 0-85.51 0-141.76-3.008l-5.23-.742v137.96z" style="fill:#000;fill-opacity:1;fill-rule:evenodd;stroke:none" transform="matrix(.13333 0 0 -.13333 0 192)"/><path d="M299.488 1035.51V910.23H163.012v-76.48l125.226.738V703.98H165.23V524.77H7.73V1040l10.508.74c135 6.02 277.5 5.28 277.5 5.28" style="fill:#000;fill-opacity:1;fill-rule:nonzero;stroke:none" transform="matrix(.13333 0 0 -.13333 0 192)"/><path d="M477.27 695.738c27.73 23.242 54.718 51.024 54.718 83.242 0 30.79-29.258 45-38.238 45h-16.48zm44.21 234.774c61.532-7.5 154.54-24.774 162.04-123.012 2.96-44.262-12.04-81.762-65.282-127.5l114.774-134.262-6.762-6.758c-31.48-32.218-66.762-62.96-104.262-92.96l-9.718-8.29-134.258 222.782V451.988H327.27V929.77l10.46.742c54.032 2.218 133.52 5.226 183.75 0zm1167.78 48.75 131.99-10.512-38.24-246.762-108.75 3.75z" style="fill:#000;fill-opacity:1;fill-rule:evenodd;stroke:none" transform="matrix(.13333 0 0 -.13333 0 192)"/><path d="m1801.02 649.262-69.77 86.25-86.25-69.774h-13.52V652.27c-61.48-3.008-107.96-1.532-141.71-.79l183.75 341.25c-174.03 9.77-300 7.5-391.53 5.282V883.238c113.24 6.024 161.99 5.282 204.03 6.024L1304.49 539.77h358.52v105l52.5-65.282z" style="fill:#000;fill-opacity:1;fill-rule:nonzero;stroke:none" transform="matrix(.13333 0 0 -.13333 0 192)"/><path d="M865 1015.23V573.52H734.488V935l56.25 13.52-17.218 66.71zm-527.27-95.968c54.032 2.218 132.782 5.968 182.27 0 63.012-7.5 145.512-24.032 152.27-112.5 2.96-41.992-11.25-78.012-70.508-125.282l115.508-135c-30.79-31.48-66.02-62.218-102.782-92.218L477.27 682.27c30 23.242 65.968 56.992 65.968 96.71 0 38.29-35.968 56.25-48.75 56.25h-27.726V463.238H337.73Zm679.54-454.492v349.492l-126.02-3.012v115.512h384.77V811.25L1150 814.262V464.77Z" style="fill:#e2001a;fill-opacity:1;fill-rule:evenodd;stroke:none" transform="matrix(.13333 0 0 -.13333 0 192)"/><path d="M1288.01 923.012v114.718c44.26 0 170.23 2.27 344.26-7.5l-183.75-341.25c39.72-.742 95.97-2.218 172.5 3.008V577.27H1262.5l181.48 349.492c-41.25-.742-90.74-.742-155.97-3.75z" style="fill:#e2001a;fill-opacity:1;fill-rule:evenodd;stroke:none" transform="matrix(.13333 0 0 -.13333 0 192)"/><path d="M288.238 965v-41.25H151.762V820.23l125.226.79V714.488h-123.75V535.23H18.981v493.52l269.257 5.23z" style="fill:#e2001a;fill-opacity:1;fill-rule:nonzero;stroke:none" transform="matrix(.13333 0 0 -.13333 0 192)"/><path d="m1686.25 736.988 86.99-3.008 34.49 224.258-107.22 9.032z" style="fill:#e2001a;fill-opacity:1;fill-rule:evenodd;stroke:none" transform="matrix(.13333 0 0 -.13333 0 192)"/><path d="m1661.48 664.262 67.5 54.718 55.51-68.242-68.24-54.718z" style="fill:#e2001a;fill-opacity:1;fill-rule:nonzero;stroke:none" transform="matrix(.13333 0 0 -.13333 0 192)"/></svg>