<svg xmlns="http://www.w3.org/2000/svg" width="666.667" height="666.667" version="1.0" viewBox="0 0 500 500"><path d="M223 1.7c-1.9.2-9.6 1.5-17 2.8C146.2 15.3 93.3 46.9 54.8 95c-11.9 14.9-18.3 25.1-27.8 44.5-13.4 27.2-21.2 52.9-25.1 82.8-1.8 14.2-.7 53.5 2 68.2 9.7 53.8 32.5 97.9 70.1 135.6 12.7 12.7 32.6 28.8 45.5 36.6 27.1 16.5 61.2 28.9 92.7 33.8 65.2 10.1 133.5-6.9 186.4-46.6 23.4-17.5 44.7-40.1 60.7-64.4 14.1-21.5 27.6-53.5 33.5-79.5 4.9-21.5 5.7-29.4 5.7-57 0-23.2-.3-28-2.3-38.7-8-43.6-22.3-77-47.1-110.1-40.2-53.6-99.7-88.4-166.9-97.6-10.4-1.5-48.5-2-59.2-.9zm82.8 42.4c30.8 3.4 58.9 16.8 74.5 35.4 22 26.2 23.5 62.8 3.9 95.9-5.2 8.6-17.9 22.8-26.7 29.6-3 2.3-5.4 4.5-5.1 4.7.2.2 12.7-3.4 27.7-8.1 47.4-14.7 83.9-25.6 85.5-25.6 1.8 0 2.8 2.5 6.5 16.8 8.6 32.7 9.3 73.7 1.8 107.6-4.8 21.8-15.1 47.1-27.4 67.6-9.1 15-13.7 21.3-25.1 34.2-37 41.8-89.9 69.3-145.9 75.9-5.5.7-17.2 1.2-26 1.2-90.1 0-172.9-54-209.1-136.3-5.1-11.5-11.4-29.7-11.4-32.7 0-1.6 2.9-2.8 18.8-7.7 19.3-5.9 104.3-31.8 119-36.2 4.5-1.3 8.2-2.7 8.2-3 0-.9 22.1-103.9 27.6-128.3 2.9-13.5 5.4-25.2 5.4-26.1 0-4.7.9-4.9 41-10.6 21.1-2.9 38.8-5 39.2-4.6.8.8-5.2 30.9-18.1 92.1-2.7 12.9-4.7 23.9-4.4 24.4.8 1.4 12.7-.1 19.7-2.4 9-3 19.2-9.8 28-18.6 9.8-9.7 15.5-17.7 20.5-28.5 5.1-10.7 7-18.6 7.8-30.8 1.1-18.4-3.2-30.5-15.2-42.6-12.3-12.5-23.4-16.3-49-17.1-14.2-.4-18.9-.2-29 1.5-58.6 10-100.2 52.4-106.4 108.5-2.1 18.6-1.1 33.3 3.1 45.3 2.9 8.5 2.4 9.3-5.4 8.7-17.4-1.3-29.3-5.5-37.1-13.1-10-9.7-13.3-20.7-12.4-41 1.2-27.3 11.3-48.4 35.1-73 16.3-16.9 31.1-27.7 53.6-39.1 26.4-13.4 55.4-21.8 84.5-24.4 9.3-.8 33.3-.6 42.3.4z"/><path d="M324 220c-11.8 3.7-29.8 9.1-40 12.1l-18.4 5.4 14.9.6c16.6.6 21.4 1.9 30.2 7.6 14.8 9.7 22.3 30.2 22.3 60.7 0 15.1-2 30.2-5.5 43.1-7.1 26-16.7 41-30.3 47.7-6.2 3.1-7.3 3.3-17.2 3.3-9.2 0-11.2-.3-16.1-2.6-3-1.5-8.6-5.2-12.3-8.4-3.7-3.1-7.1-5.3-7.6-4.9-1.6 1.8-4 10.9-5.1 19.2-2.8 21.4 2.9 33.5 19.4 41.2 10.5 4.9 17.7 6.3 33.2 6.3 29.2-.1 48.7-8.3 68.8-29.2 22.7-23.7 35.8-52 43.3-93.6 2.8-15.1 2.5-45-.4-56.2-6.7-25.8-18.9-42.2-38.7-51.8-4.9-2.4-11.2-5.1-14-5.8l-5-1.4L324 220zm-76.5 23c-4.9 1.6-22.7 7-39.5 12.1s-31 9.7-31.6 10.3c-.6.6-1.9 4.9-2.8 9.6-1 4.7-3.5 16.6-5.6 26.5-3.7 17-18.6 87.1-26.3 123.5-2 9.1-3.3 16.7-3 17 .9.9 72.8 1.1 74.1.2.8-.5 4.6-16.6 9.3-38.8 12.8-61.3 16.6-78.7 26-120.8 5-22 8.9-40.5 8.7-41.1-.2-.9-3-.4-9.3 1.5z"/></svg>