<svg xmlns="http://www.w3.org/2000/svg" width="512" height="512" style="shape-rendering:geometricPrecision;text-rendering:geometricPrecision;image-rendering:optimizeQuality;fill-rule:evenodd;clip-rule:evenodd"><path fill="#2195f2" d="M461.5 96.5a5427.147 5427.147 0 0 0-118 76c-5.209 2.219-9.876 5.219-14 9-.473 1.406-1.473 2.073-3 2-5.209 2.219-9.876 5.219-14 9-5.209 2.219-9.876 5.219-14 9-.473 1.406-1.473 2.073-3 2-4.183 1.587-7.85 3.921-11 7-.473 1.406-1.473 2.073-3 2-4.183 1.587-7.85 3.921-11 7-.473 1.406-1.473 2.073-3 2a88.602 88.602 0 0 0-11 6c-.667-68.832-1.333-137.499-2-206-1.554-1.395-1.221-2.061 1-2a9434.582 9434.582 0 0 1 206 77Z" style="opacity:.999"/><path fill="#2e75ae" d="M254.5 21.5v206A16439.525 16439.525 0 0 1 51.5 97a14798.089 14798.089 0 0 1 203-75.5Z" style="opacity:.999"/><path fill="#2a82c9" d="M254.5 21.5c.667 68.501 1.333 137.168 2 206a88.602 88.602 0 0 1 11-6c-3.59 3.139-7.59 5.806-12 8-.798-.457-1.131-1.124-1-2v-206Z" style="opacity:1"/><path fill="#357cb7" d="M461.5 96.5a2717.032 2717.032 0 0 1-118 76 5427.147 5427.147 0 0 1 118-76Z" style="opacity:.486"/><path fill="#307bb8" d="M343.5 172.5c-4.124 3.781-8.791 6.781-14 9 4.124-3.781 8.791-6.781 14-9Z" style="opacity:.675"/><path fill="#2e75ae" d="M258.5 247.5c-.709.904-1.709 1.237-3 1v122A37421.726 37421.726 0 0 1 75.5 221a3879.928 3879.928 0 0 1 74-38.5 3969.51 3969.51 0 0 0 101 64.5c2.646.497 5.313.664 8 .5Z" style="opacity:.998"/><path fill="#2295f2" d="M373.5 188.5a172.296 172.296 0 0 0 27 14 844.262 844.262 0 0 1 35 17c1.333 1 1.333 2 0 3a60055.86 60055.86 0 0 0-179.5 149c-.399-.228-.565-.562-.5-1v-122c1.291.237 2.291-.096 3-1a25.93 25.93 0 0 0 9-3.5l95.5-61.5a154.905 154.905 0 0 1 10.5 6Z" style="opacity:1"/><path fill="#3c7fbb" d="M326.5 183.5c-4.124 3.781-8.791 6.781-14 9 4.124-3.781 8.791-6.781 14-9Z" style="opacity:.031"/><path fill="#3a82c2" d="M373.5 188.5a172.296 172.296 0 0 1 27 14 172.296 172.296 0 0 1-27-14Z" style="opacity:.6"/><path fill="#3a7eba" d="M312.5 192.5c-4.124 3.781-8.791 6.781-14 9 4.124-3.781 8.791-6.781 14-9Z" style="opacity:.145"/><path fill="#377db8" d="M295.5 203.5c-3.15 3.079-6.817 5.413-11 7 3.15-3.079 6.817-5.413 11-7Z" style="opacity:.204"/><path fill="#4786bf" d="M281.5 212.5c-3.15 3.079-6.817 5.413-11 7 3.15-3.079 6.817-5.413 11-7Z" style="opacity:.157"/><path fill="#2e75ae" d="M255.5 389.5a5097.548 5097.548 0 0 1 1.5 100 740.84 740.84 0 0 1 40.5-39 2283.786 2283.786 0 0 1-40 40.5c-.667.667-1.333.667-2 0L99 336.5c-.617-.949-.45-1.782.5-2.5a1454.654 1454.654 0 0 0 43-28c1.544-1.187 3.211-1.52 5-1l96 80c3.487 2.912 7.487 4.412 12 4.5Z" style="opacity:.998"/><path fill="#2295f2" d="M407.5 340.5c-25.671 24.667-50.338 49.667-74 75a677.202 677.202 0 0 1-36 35 740.84 740.84 0 0 0-40.5 39 5097.548 5097.548 0 0 0-1.5-100c5.214-.44 9.881-2.274 14-5.5a5118.845 5118.845 0 0 1 90.5-75.5 1162.551 1162.551 0 0 1 47.5 32Z" style="opacity:.999"/><path fill="#307ab5" d="M407.5 340.5c-23.662 25.333-48.329 50.333-74 75 23.662-25.333 48.329-50.333 74-75Z" style="opacity:.157"/></svg>