<svg xmlns="http://www.w3.org/2000/svg" xmlns:xlink="http://www.w3.org/1999/xlink" width="660" height="660" version="1.0"><defs><linearGradient id="b" x1="0" x2="1" y1="0" y2="0" gradientTransform="matrix(362.91504 0 0 -362.91504 93.48 371.845)" gradientUnits="userSpaceOnUse" spreadMethod="pad"><stop offset="0" style="stop-opacity:1;stop-color:#fff"/><stop offset="1" style="stop-opacity:1;stop-color:#d2e2f0"/></linearGradient><linearGradient id="a" x1="0" x2="1" y1="0" y2="0" gradientTransform="matrix(360.521 0 0 -360.521 75.615 472.228)" gradientUnits="userSpaceOnUse" spreadMethod="pad"><stop offset="0" style="stop-opacity:1;stop-color:#fff"/><stop offset="1" style="stop-opacity:1;stop-color:#d7e2eb"/></linearGradient><linearGradient id="c" x1="0" x2="1" y1="0" y2="0" gradientTransform="scale(14.15018 -14.15018) rotate(-5.428 -302.712 -86.023)" gradientUnits="userSpaceOnUse" spreadMethod="pad"><stop offset="0" style="stop-opacity:1;stop-color:#bdbcbc"/><stop offset="1" style="stop-opacity:1;stop-color:#5a5758"/></linearGradient><linearGradient xlink:href="#a" id="e" x1="0" x2="1" y1="0" y2="0" gradientTransform="translate(805.45 182.952) scale(450.65125)" gradientUnits="userSpaceOnUse" spreadMethod="pad"/><linearGradient xlink:href="#b" id="f" x1="0" x2="1" y1="0" y2="0" gradientTransform="translate(827.783 308.43) scale(453.6438)" gradientUnits="userSpaceOnUse" spreadMethod="pad"/><linearGradient xlink:href="#c" id="g" x1="0" x2="1" y1="0" y2="0" gradientTransform="rotate(-5.428 3037.245 -8478.503) scale(12.17863)" gradientUnits="userSpaceOnUse" spreadMethod="pad"/><linearGradient xlink:href="#c" id="h" x1="0" x2="1" y1="0" y2="0" gradientTransform="rotate(-5.428 4034.418 -8632.3) scale(12.17863)" gradientUnits="userSpaceOnUse" spreadMethod="pad"/><linearGradient xlink:href="#c" id="i" x1="0" x2="1" y1="0" y2="0" gradientTransform="rotate(-5.428 4053.761 -9040.323) scale(12.17863)" gradientUnits="userSpaceOnUse" spreadMethod="pad"/><filter id="d" style="color-interpolation-filters:sRGB"><feGaussianBlur stdDeviation="5.812"/></filter></defs><g style="display:inline"><path d="M1236.46 64.63c-105.504 41.31-209.24 86.95-313.843 130.438-36.728 15.367-73.54 30.504-110.188 46.062l42.5 456.313c.524 5.517 5.353 9.546 10.782 9.03l458.28-43.53c5.43-.515 9.399-5.39 8.876-10.907l-36.656-385.875c-1.273-7.79-12.567-12.215-19.438-10.75-131.16 14.285-262.52 26.775-393.844 39.5l380.594-157.25-27.062-73.03z" style="fill:#231f20;fill-opacity:1;fill-rule:nonzero;stroke:none;filter:url(#d)" transform="translate(-742.671 -55.574)"/><path d="M1278.464 253.317 856.082 293.45l-15.355 6.406-2.663-4.693-17.89 1.7c-5.43.514-9.4 5.403-8.877 10.92l36.662 385.862c.524 5.517 5.345 9.568 10.774 9.053l458.293-43.546c5.428-.515 9.4-5.401 8.878-10.919l-36.663-385.862c-.524-5.518-5.348-9.568-10.777-9.053" style="fill:#231f20;fill-opacity:1;fill-rule:nonzero;stroke:none" transform="translate(-742.671 -55.574)"/><path d="m863.947 296.089 392.611-162.228 3.75-11.25-446.832 119.045 32.453 56.144 2.665 4.712 15.353-6.423z" style="fill:#5a5758;fill-opacity:1;fill-rule:nonzero;stroke:none" transform="translate(-742.671 -55.574)"/><path d="m855.923 291.775 400.179-167.424-45.43-56.647-405.221 169.64 32.455 56.142 2.663 4.713 15.354-6.424z" style="fill:url(#e);stroke:none" transform="translate(-742.671 -55.574)"/><path d="M1281.427 251.344 840.903 294.55l13.388 65.802 421.407-35.705z" style="fill:url(#f);stroke:none" transform="translate(-742.671 -55.574)"/><path d="M1319.247 633.461c.427 4.725-3 8.911-7.659 9.346l-424.39 39.802c-4.655.439-8.778-3.04-9.206-7.764l-26.574-293.74c-.43-4.727 3-8.911 7.656-9.347l424.391-39.802c4.657-.438 8.777 3.04 9.206 7.765l26.576 293.74z" style="fill:none;stroke:#231f20;stroke-width:2.62232304;stroke-linecap:butt;stroke-linejoin:miter;stroke-miterlimit:4;stroke-dasharray:none;stroke-opacity:1" transform="translate(-742.671 -55.574)"/><path d="m1229.487 60.84-26.156 9.75 45.343 57.094 12.063-5.157zm-67.813 26.844-59 25.281 45.375 57.125 59-25.313zm-111.937 46.156-59.031 25.312 45.375 57.094 59.03-25.281zm-108.125 46.25-59.031 25.281 45.375 57.125 59.03-25.312zm-134.934 60.787 23.081 121.983 73.513-4.074-.113-26.995-69.164-94.113-5.125-3.623-19.769 2.349zm475.559 13.713-13.438 71.687 13.063-1.062 4.219-69.25zm-62.031 2.562-62.875 5.97-13.5 76.03 62.406-7.03zm-104.75 10.657-62.532 5.25-13.312 73.468 63.25-2.062zM1001.83 278.59l-62.438 6.094-13.375 72.625 62.438-3.875z" style="fill:#231f20;fill-opacity:1;fill-rule:nonzero;stroke:none" transform="translate(-742.671 -55.574)"/><path d="M821.81 242.641a6.087 6.087 0 0 0-.624.022c-2.721.259-4.846 2.277-5.38 4.82-.04.195-.085.38-.107.58-.045.41-.04.823 0 1.249a5.87 5.87 0 0 0 .237 1.205c.059.193.138.375.215.559.003.006-.003.016 0 .022.075.177.146.348.237.516a6.03 6.03 0 0 0 1.484 1.807c.6.497 1.291.881 2.044 1.12.006.001.016-.003.022 0 .182.056.37.11.56.15.39.082.793.126 1.204.129.206 0 .415-.001.624-.022a5.97 5.97 0 0 0 1.227-.258c.193-.059.375-.116.56-.193a6.109 6.109 0 0 0 1.743-1.119c.065-.061.129-.13.193-.194a6.03 6.03 0 0 0 .602-.689c.049-.065.105-.126.15-.193.004-.005-.002-.017 0-.022.11-.161.208-.323.302-.495.094-.171.181-.335.258-.516.231-.542.387-1.14.452-1.743.043-.402.04-.808 0-1.226a6.23 6.23 0 0 0-.086-.624 5.824 5.824 0 0 0-.13-.517c-.005-.021-.014-.043-.02-.064a5.82 5.82 0 0 0-.173-.474 5.956 5.956 0 0 0-.194-.43c-.01-.02-.01-.044-.021-.064-.021-.042-.042-.088-.065-.13a6.138 6.138 0 0 0-.215-.365 6.229 6.229 0 0 0-.323-.452 5.994 5.994 0 0 0-.946-.99c-.134-.111-.266-.223-.41-.323a6.072 6.072 0 0 0-.193-.129c-.013-.009-.03-.013-.043-.021a6.563 6.563 0 0 0-.452-.258l-.043-.022a5.882 5.882 0 0 0-.731-.301c-.06-.021-.112-.046-.172-.065a5.898 5.898 0 0 0-.581-.15 6.252 6.252 0 0 0-.474-.086 6.21 6.21 0 0 0-.731-.043z" style="fill:url(#g);stroke:none" transform="translate(-742.671 -55.574)"/><path d="M840.831 336.286a6.087 6.087 0 0 0-.624.021c-2.72.259-4.846 2.277-5.379 4.82-.041.195-.086.38-.108.58-.045.41-.04.823 0 1.249a5.87 5.87 0 0 0 .237 1.205c.06.193.138.375.215.56.003.005-.003.015 0 .02.075.178.146.349.237.517a6.03 6.03 0 0 0 1.485 1.807c.599.497 1.29.881 2.044 1.12.006.001.015-.003.021 0 .182.056.371.11.56.15.39.082.793.126 1.205.129.205.001.414-.001.624-.022.427-.04.831-.135 1.226-.258.194-.059.375-.116.56-.193a6.109 6.109 0 0 0 1.743-1.119c.066-.061.13-.13.193-.194a6.03 6.03 0 0 0 .603-.688c.048-.066.104-.127.15-.194.003-.005-.003-.016 0-.022a5.66 5.66 0 0 0 .301-.494 5.8 5.8 0 0 0 .259-.517 5.98 5.98 0 0 0 .451-2.969 6.23 6.23 0 0 0-.086-.624 5.824 5.824 0 0 0-.129-.517l-.021-.064a5.82 5.82 0 0 0-.172-.473 5.956 5.956 0 0 0-.194-.43c-.01-.02-.011-.045-.022-.065a3.9 3.9 0 0 0-.064-.13 6.138 6.138 0 0 0-.215-.365 6.229 6.229 0 0 0-.323-.452 5.994 5.994 0 0 0-.947-.99c-.134-.11-.265-.223-.409-.323a6.072 6.072 0 0 0-.193-.129c-.014-.009-.03-.013-.043-.021a6.563 6.563 0 0 0-.452-.258l-.043-.022a5.882 5.882 0 0 0-.732-.301c-.06-.021-.111-.045-.172-.065a5.898 5.898 0 0 0-.58-.15 6.252 6.252 0 0 0-.474-.086 6.21 6.21 0 0 0-.732-.043z" style="fill:url(#h);stroke:none" transform="translate(-742.671 -55.574)"/><path d="M879.517 336.286a6.087 6.087 0 0 0-.624.021c-2.72.259-4.846 2.277-5.379 4.82-.04.195-.086.38-.107.58-.046.41-.04.823 0 1.249a5.87 5.87 0 0 0 .236 1.205c.06.193.138.375.216.56.003.005-.003.015 0 .02.075.178.145.349.236.517a6.03 6.03 0 0 0 1.485 1.807c.6.497 1.29.881 2.044 1.12.006.001.015-.003.021 0 .183.056.372.11.56.15.39.082.794.126 1.205.129.206.001.415-.001.624-.022.428-.04.832-.135 1.226-.258.194-.059.376-.116.56-.193a6.109 6.109 0 0 0 1.743-1.119c.066-.061.13-.13.193-.194a6.03 6.03 0 0 0 .603-.688c.048-.066.104-.127.15-.194.003-.005-.003-.016 0-.022.11-.161.208-.323.302-.494.093-.172.18-.336.258-.517.23-.542.387-1.14.452-1.743.043-.402.04-.808 0-1.226a6.23 6.23 0 0 0-.087-.624 5.824 5.824 0 0 0-.129-.517l-.021-.064a5.82 5.82 0 0 0-.172-.473 5.956 5.956 0 0 0-.194-.43c-.01-.02-.011-.045-.021-.065l-.065-.13a6.138 6.138 0 0 0-.215-.365 6.229 6.229 0 0 0-.323-.452 5.994 5.994 0 0 0-.947-.99c-.134-.11-.265-.223-.408-.323a6.072 6.072 0 0 0-.194-.129c-.014-.009-.03-.013-.043-.021a6.563 6.563 0 0 0-.452-.258l-.043-.022a5.882 5.882 0 0 0-.732-.301c-.06-.021-.111-.045-.172-.065a5.898 5.898 0 0 0-.58-.15 6.252 6.252 0 0 0-.474-.086 6.21 6.21 0 0 0-.732-.043z" style="fill:url(#i);stroke:none" transform="translate(-742.671 -55.574)"/></g><g style="display:inline"><g style="font-style:oblique;font-variant:normal;font-weight:700;font-stretch:normal;font-size:76.86286163px;line-height:125%;font-family:&quot;Bitstream Vera Sans&quot;;-inkscape-font-specification:&quot;Bitstream Vera Sans Bold Oblique&quot;;text-align:start;writing-mode:lr-tb;text-anchor:start;fill:#f0f6fa;fill-opacity:1;fill-rule:nonzero;stroke:#000;stroke-width:1.2810477;stroke-opacity:1"><path d="M106.226 466.384h61.3l42.535 99.956 42.785-99.956h61.175v186.778h-45.537V516.55L225.45 617.257h-30.525L151.889 516.55v136.612h-45.663V466.384zm232.941 0h48.414l49.541 137.862 49.415-137.862h48.415L465.77 653.162h-57.422l-69.181-186.778z" style="font-style:normal;font-variant:normal;font-weight:700;font-stretch:normal;font-size:256.20956421px;font-family:&quot;Bitstream Vera Sans&quot;;-inkscape-font-specification:&quot;Bitstream Vera Sans Bold&quot;;fill:#f0f6fa;fill-opacity:1;fill-rule:nonzero;stroke:#000;stroke-width:1.2810477;stroke-opacity:1" transform="rotate(-5.365 -782.11 407.464)"/></g></g></svg>